<svg width="256" height="256" viewBox="0 0 256 256" fill="none" xmlns="http://www.w3.org/2000/svg">
<path d="M190.406 35.9697C202.339 24.0324 221.687 24.0324 233.62 35.9697C245.554 47.9069 245.554 67.261 233.62 79.1983L125.584 187.27C113.651 199.207 94.3028 199.207 82.3695 187.27C70.4361 175.333 70.4361 155.978 82.3695 144.041L190.406 35.9697Z" fill="#FF6100"/>
<path d="M98.5755 8.95294C110.509 -2.98431 129.857 -2.98431 141.79 8.95294C153.723 20.8902 153.723 40.2443 141.79 52.1816L66.1646 127.832C54.2312 139.769 34.8834 139.769 22.95 127.832C11.0167 115.894 11.0167 96.5403 22.95 84.603L98.5755 8.95294Z" fill="#0099FF"/>
<path d="M185.004 160.252C196.937 148.315 216.285 148.315 228.219 160.252C240.152 172.189 240.152 191.543 228.219 203.481L185.004 246.709C173.071 258.647 153.723 258.647 141.789 246.709C129.856 234.772 129.856 215.418 141.789 203.481L185.004 160.252Z" fill="#FFB629"/>
<path d="M29.2787 256H71.9503C78.7562 256 82.1646 247.769 77.3521 242.955L27.0412 192.627C22.2286 187.813 14 191.223 14 198.031V240.717C14 249.158 20.8405 256 29.2787 256Z" fill="#0A1551"/>
</svg>
